HIERARCHY
ROOT Hips
{
	OFFSET 0.00000 0.00000 0.00000
	CHANNELS 6 Xposition Yposition Zposition Zrotation Yrotation Xrotation 
	JOINT LHipJoint
	{
		OFFSET 0 0 0
		CHANNELS 3 Zrotation Yrotation Xrotation
		JOINT LeftUpLeg
		{
			OFFSET 1.60223 -1.58443 0.78595
			CHANNELS 3 Zrotation Yrotation Xrotation
			JOINT LeftLeg
			{
				OFFSET 2.21690 -6.09089 0.00000
				CHANNELS 3 Zrotation Yrotation Xrotation
				JOINT LeftFoot
				{
					OFFSET 2.34805 -6.45122 0.00000
					CHANNELS 3 Zrotation Yrotation Xrotation
					JOINT LeftToeBase
					{
						OFFSET 0.35452 -0.97402 1.38549
						CHANNELS 3 Zrotation Yrotation Xrotation
						End Site
						{
							OFFSET 0.00000 -0.00000 0.82816
						}
					}
				}
			}
		}
	}
	JOINT RHipJoint
	{
		OFFSET 0 0 0
		CHANNELS 3 Zrotation Yrotation Xrotation
		JOINT RightUpLeg
		{
			OFFSET -1.56524 -1.58443 0.78595
			CHANNELS 3 Zrotation Yrotation Xrotation
			JOINT RightLeg
			{
				OFFSET -2.15558 -5.92241 0.00000
				CHANNELS 3 Zrotation Yrotation Xrotation
				JOINT RightFoot
				{
					OFFSET -2.35077 -6.45870 0.00000
					CHANNELS 3 Zrotation Yrotation Xrotation
					JOINT RightToeBase
					{
						OFFSET -0.26910 -0.73935 1.33295
						CHANNELS 3 Zrotation Yrotation Xrotation
						End Site
						{
							OFFSET -0.00000 -0.00000 0.75962
						}
					}
				}
			}
		}
	}
	JOINT LowerBack
	{
		OFFSET 0 0 0
		CHANNELS 3 Zrotation Yrotation Xrotation
		JOINT Spine
		{
			OFFSET -0.05489 1.97104 -0.02993
			CHANNELS 3 Zrotation Yrotation Xrotation
			JOINT Spine1
			{
				OFFSET -0.00702 1.94230 0.13626
				CHANNELS 3 Zrotation Yrotation Xrotation
				JOINT Neck
				{
					OFFSET 0 0 0
					CHANNELS 3 Zrotation Yrotation Xrotation
					JOINT Neck1
					{
						OFFSET -0.07858 1.62869 -0.02510
						CHANNELS 3 Zrotation Yrotation Xrotation
						JOINT Head
						{
							OFFSET 0.13978 1.59213 -0.29859
							CHANNELS 3 Zrotation Yrotation Xrotation
							End Site
							{
								OFFSET 0.05353 1.64420 -0.10000
							}
						}
					}
				}
				JOINT LeftShoulder
				{
					OFFSET 0 0 0
					CHANNELS 3 Zrotation Yrotation Xrotation
					JOINT LeftArm
					{
						OFFSET 3.48263 1.15278 0.52941
						CHANNELS 3 Zrotation Yrotation Xrotation
						JOINT LeftForeArm
						{
							OFFSET 4.59207 -0.00000 -0.00000
							CHANNELS 3 Zrotation Yrotation Xrotation
							JOINT LeftHand
							{
								OFFSET 2.98109 -0.00000 -0.00000
								CHANNELS 3 Zrotation Yrotation Xrotation
								JOINT LeftFingerBase
								{
									OFFSET 0 0 0
									CHANNELS 3 Zrotation Yrotation Xrotation
									JOINT LeftHandIndex1
									{
										OFFSET 0.48020 -0.00000 -0.00000
										CHANNELS 3 Zrotation Yrotation Xrotation
										End Site
										{
											OFFSET 0.38715 -0.00000 -0.00000
										}
									}
								}
								JOINT LThumb
								{
									OFFSET 0 0 0
									CHANNELS 3 Zrotation Yrotation Xrotation
									End Site
									{
										OFFSET 0.39306 -0.00000 0.39306
									}
								}
							}
						}
					}
				}
				JOINT RightShoulder
				{
					OFFSET 0 0 0
					CHANNELS 3 Zrotation Yrotation Xrotation
					JOINT RightArm
					{
						OFFSET -3.52496 1.12722 0.24548
						CHANNELS 3 Zrotation Yrotation Xrotation
						JOINT RightForeArm
						{
							OFFSET -4.76508 -0.00000 -0.00000
							CHANNELS 3 Zrotation Yrotation Xrotation
							JOINT RightHand
							{
								OFFSET -2.78902 -0.00000 -0.00000
								CHANNELS 3 Zrotation Yrotation Xrotation
								JOINT RightFingerBase
								{
									OFFSET 0 0 0
									CHANNELS 3 Zrotation Yrotation Xrotation
									JOINT RightHandIndex1
									{
										OFFSET -0.72130 -0.00000 -0.00000
										CHANNELS 3 Zrotation Yrotation Xrotation
										End Site
										{
											OFFSET -0.58153 -0.00000 -0.00000
										}
									}
								}
								JOINT RThumb
								{
									OFFSET 0 0 0
									CHANNELS 3 Zrotation Yrotation Xrotation
									End Site
									{
										OFFSET -0.59041 -0.00000 0.59041
									}
								}
							}
						}
					}
				}
			}
		}
	}
}
MOTION
Frames: 10
Frame Time: .0083333
3.6891 16.1529 2.9396 539.7400 43.0978 -172.8490 0.0000 0.0000 0.0000 -1.8422 -24.5938 -19.0751 4.3276 12.5840 37.8306 0.1591 -8.8199 -8.8325 1.0897 -6.6342 -18.6361 0.0000 0.0000 0.0000 22.2277 18.0894 -20.9602 -5.7100 -14.1413 43.8066 1.6493 22.0558 7.0438 -0.1235 2.2653 -6.2394 -8.2792 1.4935 -0.5917 2.0008 2.1903 -7.0603 6.6234 1.8341 -7.5291 -2.2714 4.5949 2.0040 24.2945 5.1734 28.1108 9.2571 5.7742 7.3462 0.0000 0.0000 0.0000 -79.4682 21.5967 53.7899 130.4543 -52.8106 -94.1882 -0.0000 -0.0000 7.1574 34.4132 30.7600 19.3087 -7.1250 0.0000 -0.0000 4.1416 65.7435 2.0761 0.0000 0.0000 0.0000 -34.4703 31.3139 -49.4211 -103.3885 59.3117 -71.5680 0.0000 -0.0000 -26.6545 -9.0020 38.8633 -5.6768 7.1250 -0.0000 -0.0000 13.3645 8.2963 15.5524
3.5908 16.1928 2.8609 536.5480 48.5093 -174.0890 0.0000 0.0000 0.0000 -5.2597 -20.8007 -18.5871 4.0061 12.1685 36.3306 0.3410 -7.2720 -10.8463 1.4021 -7.4904 -21.1766 0.0000 0.0000 0.0000 18.9842 17.7913 -23.9063 -6.1999 -14.6193 45.7789 1.5036 21.1551 6.2010 -0.3352 3.7206 -10.2919 -9.7549 1.6771 -1.0145 1.2660 2.4067 -7.5541 6.6514 2.0604 -7.9268 -1.9310 5.3617 1.8676 24.0540 6.0582 28.4076 9.1298 6.1588 7.3664 0.0000 -0.0000 0.0000 -79.3617 21.2468 54.4494 130.6959 -52.7109 -94.3806 -0.0000 -0.0000 7.2310 35.0043 31.8745 20.2949 -7.1250 0.0000 -0.0000 4.5505 67.1318 2.4265 0.0000 -0.0000 0.0000 -34.8096 31.1583 -51.0235 -107.7360 58.7774 -75.2967 0.0000 -0.0000 -27.5016 -10.3806 38.2238 -6.4664 7.1250 -0.0000 -0.0000 12.5881 7.8842 14.5278
3.4895 16.2139 2.7871 533.1140 53.8137 -175.9770 0.0000 0.0000 0.0000 -8.3588 -17.0871 -18.1345 3.6690 11.7064 34.7010 0.4818 -5.2628 -12.3718 1.4496 -7.6107 -21.5376 0.0000 0.0000 0.0000 16.2589 16.5597 -27.2696 -6.7355 -15.1050 47.8666 1.3329 20.0751 4.9280 -1.1020 6.6703 -18.7423 -11.0082 1.7542 -1.2136 0.7184 2.4726 -7.9633 6.7533 2.2063 -8.3416 -1.8875 6.1485 1.4406 23.8552 6.9235 28.8183 9.1017 6.5166 7.4673 0.0000 0.0000 0.0000 -79.6453 20.8432 54.6399 130.7477 -52.6895 -94.4217 -0.0000 -0.0000 7.6051 33.4946 32.0565 19.3526 -7.1250 0.0000 -0.0000 2.2970 66.8709 1.2104 0.0000 0.0000 0.0000 -35.2934 31.0464 -53.1189 -112.1023 58.0712 -79.0172 0.0000 -0.0000 -28.6193 -12.0381 37.7392 -7.4364 7.1250 -0.0000 -0.0000 11.6718 7.6764 13.3896
3.3893 16.2232 2.7202 529.2690 58.8467 -178.6260 0.0000 0.0000 0.0000 -11.1480 -13.4079 -17.8028 3.3706 11.2720 33.2029 0.5595 -3.1043 -13.4100 1.2377 -7.0547 -19.8775 0.0000 0.0000 0.0000 14.1430 14.5380 -30.8253 -7.3019 -15.5809 50.0071 1.1488 18.9070 3.2598 -2.3936 9.6417 -27.8242 -11.9744 1.7739 -1.1355 0.2006 2.4293 -8.3936 6.7162 2.2925 -8.9093 -1.6863 6.8521 1.2684 23.4152 7.7305 28.9210 8.9105 6.8049 7.4543 -0.0000 0.0000 0.0000 -79.8703 20.6521 55.3394 131.0165 -52.5772 -94.6353 -0.0000 -0.0000 6.9938 33.7591 31.3428 19.1714 -7.1250 0.0000 -0.0000 2.9922 66.1816 1.5296 -0.0000 0.0000 0.0000 -35.6192 30.7476 -55.4407 -115.8869 57.3099 -82.2163 0.0000 -0.0000 -30.1655 -13.5453 37.7710 -8.3941 7.1250 -0.0000 -0.0000 10.8871 7.9622 12.5031
3.2909 16.2120 2.6561 524.4560 63.5527 -182.6060 0.0000 0.0000 0.0000 -13.8159 -9.6610 -17.6032 3.1392 10.9170 32.0005 0.6033 -1.5869 -14.2140 1.0864 -6.6245 -18.6076 0.0000 0.0000 0.0000 12.4805 12.0187 -34.2263 -7.8673 -16.0208 52.0833 0.9819 17.9271 1.3513 -3.4136 11.3362 -33.4223 -12.7026 1.8931 -0.7493 -0.5063 2.4602 -8.8453 6.3110 2.4030 -9.6795 -1.0841 7.2961 1.5097 22.7812 8.2656 28.5699 8.5149 6.9540 7.2987 -0.0000 -0.0000 0.0000 -79.6438 20.5508 56.2434 131.4237 -52.4049 -94.9584 -0.0000 -0.0000 6.9098 33.2261 30.9628 18.6239 -7.1250 0.0000 -0.0000 2.4160 65.6140 1.2032 -0.0000 -0.0000 0.0000 -35.2575 29.9031 -57.5879 -119.4075 56.4658 -85.1655 0.0000 -0.0000 -31.9960 -14.9012 37.7389 -9.2506 7.1250 -0.0000 -0.0000 10.1726 8.1729 11.6886
3.1993 16.1779 2.5888 518.2630 67.9274 -188.3220 0.0000 0.0000 0.0000 -16.2870 -5.9449 -17.3835 2.9553 10.6223 31.0163 0.6525 -0.9315 -14.9707 0.9743 -6.2837 -17.6098 0.0000 0.0000 0.0000 11.2797 9.2251 -37.3666 -8.3939 -16.4015 53.9695 0.8641 17.4519 -0.4912 -4.0362 12.2084 -36.4734 -13.1958 1.9387 -0.2980 -1.1407 2.3735 -9.0524 5.8676 2.4046 -10.1761 -0.7272 7.6993 1.3418 22.1528 8.7079 28.2009 8.1963 7.0400 7.2135 -0.0000 -0.0000 0.0000 -79.6407 20.1353 56.8462 131.7425 -52.2681 -95.2108 -0.0000 -0.0000 6.7496 33.5128 31.0074 18.8363 -7.1250 0.0000 -0.0000 2.7920 65.7464 1.3991 -0.0000 -0.0000 0.0000 -34.6517 29.0687 -60.1725 -123.1029 55.4248 -88.2275 0.0000 -0.0000 -33.5865 -16.1760 37.7278 -10.0651 7.1250 -0.0000 -0.0000 9.5026 8.4009 10.9297
3.1227 16.1409 2.5162 510.1810 71.9038 -196.1490 0.0000 0.0000 0.0000 -18.4508 -2.8302 -16.9072 2.7915 10.3496 30.1164 0.7190 -0.3239 -15.9179 0.8305 -5.8140 -16.2457 0.0000 0.0000 0.0000 10.6651 6.1173 -40.3306 -8.8483 -16.7091 55.5641 0.8173 17.7814 -2.2336 -4.2986 12.5475 -37.6974 -13.3222 1.8912 0.0597 -1.6802 2.1898 -9.1458 5.3458 2.3110 -10.4429 -0.6757 8.0879 1.0717 21.5874 9.1316 27.8056 7.9591 7.0957 7.1174 0.0000 -0.0000 0.0000 -79.6171 19.7020 57.6166 132.0128 -52.1507 -95.4244 -0.0000 -0.0000 6.3613 34.0356 30.7160 19.0339 -7.1250 0.0000 -0.0000 3.6328 65.5844 1.8074 0.0000 -0.0000 0.0000 -33.7992 28.3307 -62.8121 -126.2814 54.3894 -90.8286 0.0000 -0.0000 -34.9740 -17.7551 38.5617 -11.2878 7.1250 -0.0000 -0.0000 8.8050 9.5353 10.2537
3.0661 16.1091 2.4459 498.9250 75.3118 -207.2790 0.0000 0.0000 0.0000 -20.3571 -0.3192 -16.2158 2.6251 10.0620 29.1776 0.8016 0.4959 -17.1050 0.7440 -5.5100 -15.3691 0.0000 0.0000 0.0000 10.6534 2.7314 -43.1157 -9.2164 -16.9450 56.8356 0.6614 17.4208 -4.3524 -4.4374 12.7208 -38.3321 -13.2219 1.8068 0.3899 -2.2053 1.9709 -9.3194 4.7176 2.1907 -10.7662 -0.8577 8.4008 0.9510 21.2953 9.4623 27.4758 7.8540 7.1272 6.9931 0.0000 0.0000 0.0000 -79.5043 19.4410 58.2414 132.4163 -51.9733 -95.7426 -0.0000 -0.0000 6.0953 34.1442 30.6717 19.0831 -7.1250 0.0000 -0.0000 3.8003 65.5682 1.8894 0.0000 0.0000 0.0000 -32.5148 27.6012 -65.0193 -128.9175 53.4229 -92.9589 0.0000 -0.0000 -36.2785 -19.6695 39.7424 -12.8728 7.1250 -0.0000 -0.0000 8.0208 11.1069 9.4999
3.0295 16.0816 2.3879 481.9760 77.5635 -224.1940 0.0000 0.0000 0.0000 -22.4218 2.1220 -15.4991 2.4465 9.7399 28.1385 0.8844 1.1982 -18.2384 0.6968 -5.3360 -14.8695 0.0000 0.0000 0.0000 10.7199 -0.6645 -45.7150 -9.5059 -17.1225 57.8238 0.2030 13.6301 -6.8371 -3.8257 11.9248 -35.4664 -13.4949 1.6267 0.7469 -2.7372 1.5951 -9.5345 4.3000 2.0343 -11.1622 -1.1178 8.6618 0.8919 21.1381 9.7240 27.2661 7.8168 7.1478 6.8915 0.0000 -0.0000 0.0000 -80.0171 19.4084 58.1854 132.3451 -52.0048 -95.6865 -0.0000 -0.0000 6.7390 33.2943 30.3568 18.3612 -7.1250 0.0000 -0.0000 2.7590 64.9785 1.3336 0.0000 -0.0000 0.0000 -30.9640 26.8858 -66.9117 -131.1044 52.5403 -94.7052 0.0000 -0.0000 -37.4220 -21.2496 40.6244 -14.2083 7.1250 -0.0000 -0.0000 7.3873 12.3367 8.8604
3.0125 16.0645 2.3493 461.0680 78.0543 -245.0980 0.0000 0.0000 0.0000 -24.6731 4.7472 -14.9579 2.2679 9.4031 27.0646 0.9308 1.5905 -18.8663 0.6773 -5.2624 -14.6585 0.0000 0.0000 0.0000 10.6189 -3.5883 -48.0879 -9.7164 -17.2473 58.5363 -0.3684 6.4202 -11.0308 -3.3410 11.2276 -33.0514 -14.2192 1.3420 1.0170 -3.2783 1.0623 -9.7714 4.1361 1.8468 -11.5415 -1.0193 8.6190 0.7273 20.3022 9.6330 27.2992 7.5288 6.9923 7.0105 -0.0000 -0.0000 0.0000 -80.1860 19.2041 58.8773 132.2500 -52.0467 -95.6115 -0.0000 -0.0000 6.2659 34.0635 30.1751 18.7703 -7.1250 0.0000 -0.0000 3.8741 65.0039 1.8755 -0.0000 -0.0000 0.0000 -29.1688 25.9510 -68.4623 -132.6712 51.8597 -95.9432 0.0000 -0.0000 -38.6677 -22.5866 41.1043 -15.2954 7.1250 -0.0000 -0.0000 6.8154 13.1312 8.2367
